<?xml version="1.0" encoding="UTF-8"?>
<svg width="1085px" height="507px" viewBox="0 0 1085 507" version="1.1" xmlns="http://www.w3.org/2000/svg" xmlns:xlink="http://www.w3.org/1999/xlink">
    <title>logo-sketch@2x</title>
    <g id="Page-1" stroke="none" stroke-width="1" fill="none" fill-rule="evenodd">
        <g id="waveform-lines-sharp-regular" transform="translate(33.000000, 0.000000)" fill="#326358" fill-rule="nonzero">
            <path d="M547.7125,0 L547.7125,23.765625 L547.7125,483.234375 L547.7125,507 L471.2875,507 L471.2875,483.234375 L471.2875,23.765625 L471.2875,0 L547.7125,0 Z M866.15,63.375 L866.15,87.140625 L866.15,419.859375 L866.15,443.625 L789.725,443.625 L789.725,419.859375 L789.725,87.140625 L789.725,63.375 L866.15,63.375 Z M382.125,95.0625 L382.125,118.828125 L382.125,388.171875 L382.125,411.9375 L305.7,411.9375 L305.7,388.171875 L305.7,118.828125 L305.7,95.0625 L382.125,95.0625 Z M713.3,126.75 L713.3,150.515625 L713.3,356.484375 L713.3,380.25 L636.875,380.25 L636.875,356.484375 L636.875,150.515625 L636.875,126.75 L713.3,126.75 Z M229.275,190.125 L229.275,213.890625 L229.275,293.109375 L229.275,316.875 L152.85,316.875 L152.85,293.109375 L152.85,213.890625 L152.85,190.125 L229.275,190.125 Z M76.425,221.8125 L76.425,245.578125 L76.425,261.421875 L76.425,285.1875 L0,285.1875 L0,261.421875 L0,245.578125 L0,221.8125 L76.425,221.8125 Z M1019,221.8125 L1019,245.578125 L1019,261.421875 L1019,285.1875 L942.575,285.1875 L942.575,261.421875 L942.575,245.578125 L942.575,221.8125 L1019,221.8125 Z" id="Shape"></path>
        </g>
        <g id="TONALFLEX" transform="translate(16.120000, 128.635000)" fill="#FFFFFF" fill-rule="nonzero">
            <polygon id="Path" points="0 19.305 0 5.655 76.83 5.655 76.83 19.305 45.63 19.305 45.63 145.665 31.395 145.665 31.395 19.305"></polygon>
            <path d="M90.87,76.245 C90.87,62.725 94.12,50.245 100.62,38.805 C107.12,27.365 116.025,18.395 127.335,11.895 C138.645,5.395 150.9625,2.145 164.2875,2.145 C177.6125,2.145 190.0275,5.3625 201.5325,11.7975 C213.0375,18.2325 222.0725,27.1375 228.6375,38.5125 C235.2025,49.8875 238.485,62.2375 238.485,75.5625 C238.485,88.8875 235.235,101.2375 228.735,112.6125 C222.235,123.9875 213.2975,132.925 201.9225,139.425 C190.5475,145.925 178.1975,149.175 164.8725,149.175 C151.5475,149.175 139.165,145.9575 127.725,139.5225 C116.285,133.0875 107.2825,124.215 100.7175,112.905 C94.1525,101.595 90.87,89.375 90.87,76.245 Z M223.86,75.66 C223.86,58.89 218.0425,44.72 206.4075,33.15 C194.7725,21.58 180.765,15.795 164.385,15.795 C147.615,15.795 133.6075,21.6125 122.3625,33.2475 C111.1175,44.8825 105.495,59.0525 105.495,75.7575 C105.495,92.4625 111.28,106.6 122.85,118.17 C134.42,129.74 148.395,135.525 164.775,135.525 C181.155,135.525 195.0975,129.87 206.6025,118.56 C218.1075,107.25 223.86,92.95 223.86,75.66 Z" id="Shape"></path>
            <polygon id="Path" points="266.565 145.665 266.565 5.655 269.685 5.655 362.7 112.905 362.7 5.655 376.545 5.655 376.545 145.665 373.425 145.665 280.995 39.78 280.995 145.665"></polygon>
            <path d="M468,0 L533.325,145.665 L518.31,145.665 L496.275,97.89 L435.825,97.89 L413.985,145.665 L398.385,145.665 L464.49,0 L468,0 Z M466.245,31.005 L442.26,83.655 L490.035,83.655 L466.245,31.005 Z" id="Shape"></path>
            <polygon id="Path" points="554.97 5.655 569.205 5.655 569.205 132.21 623.025 132.21 623.025 145.665 554.97 145.665"></polygon>
            <polygon id="Path" points="645.06 5.655 715.26 5.655 715.26 19.5 659.1 19.5 659.1 63.18 715.26 63.18 715.26 77.025 659.1 77.025 659.1 145.665 645.06 145.665"></polygon>
            <polygon id="Path" points="739.635 5.655 753.87 5.655 753.87 132.21 807.69 132.21 807.69 145.665 739.635 145.665"></polygon>
            <polygon id="Path" points="829.92 5.655 910.26 5.655 910.26 19.5 843.96 19.5 843.96 63.18 909.675 63.18 909.675 76.83 843.96 76.83 843.96 131.82 909.675 131.82 909.675 145.665 829.92 145.665"></polygon>
            <polygon id="Path" points="926.835 5.655 943.215 5.655 976.755 60.255 1010.685 5.655 1026.87 5.655 985.14 73.515 1029.6 145.665 1013.22 145.665 976.755 86.97 940.29 145.665 923.91 145.665 968.565 73.515"></polygon>
        </g>
        <g id="OPENSOURCEAUDIO" transform="translate(24.880000, 291.265000)" fill="#FFFFFF" fill-rule="nonzero">
            <path d="M0,41.055 C0,33.775 1.75,27.055 5.25,20.895 C8.75,14.735 13.545,9.905 19.635,6.405 C25.725,2.905 32.3575,1.155 39.5325,1.155 C46.7075,1.155 53.3925,2.8875 59.5875,6.3525 C65.7825,9.8175 70.6475,14.6125 74.1825,20.7375 C77.7175,26.8625 79.485,33.5125 79.485,40.6875 C79.485,47.8625 77.735,54.5125 74.235,60.6375 C70.735,66.7625 65.9225,71.575 59.7975,75.075 C53.6725,78.575 47.0225,80.325 39.8475,80.325 C32.6725,80.325 26.005,78.5925 19.845,75.1275 C13.685,71.6625 8.8375,66.885 5.3025,60.795 C1.7675,54.705 0,48.125 0,41.055 Z M71.61,40.74 C71.61,31.71 68.4775,24.08 62.2125,17.85 C55.9475,11.62 48.405,8.505 39.585,8.505 C30.555,8.505 23.0125,11.6375 16.9575,17.9025 C10.9025,24.1675 7.875,31.7975 7.875,40.7925 C7.875,49.7875 10.99,57.4 17.22,63.63 C23.45,69.86 30.975,72.975 39.795,72.975 C48.615,72.975 56.1225,69.93 62.3175,63.84 C68.5125,57.75 71.61,50.05 71.61,40.74 Z" id="Shape"></path>
            <path d="M94.5,3.045 L109.515,3.045 C118.405,3.045 124.215,3.395 126.945,4.095 C129.675,4.795 132.1775,6.02 134.4525,7.77 C136.7275,9.52 138.495,11.7075 139.755,14.3325 C141.015,16.9575 141.645,19.88 141.645,23.1 C141.645,28.28 140.245,32.515 137.445,35.805 C134.645,39.095 131.1275,41.1775 126.8925,42.0525 C122.6575,42.9275 116.165,43.365 107.415,43.365 L102.06,43.365 L102.06,78.435 L94.5,78.435 L94.5,3.045 Z M102.06,10.395 L102.06,36.12 L114.765,36.12 C122.395,36.26 127.47,35.0175 129.99,32.3925 C132.51,29.7675 133.77,26.67 133.77,23.1 C133.77,14.63 127.645,10.395 115.395,10.395 L102.06,10.395 Z" id="Shape"></path>
            <polygon id="Path" points="156.765 3.045 200.025 3.045 200.025 10.5 164.325 10.5 164.325 34.02 199.71 34.02 199.71 41.37 164.325 41.37 164.325 70.98 199.71 70.98 199.71 78.435 156.765 78.435"></polygon>
            <polygon id="Path" points="213.045 78.435 213.045 3.045 214.725 3.045 264.81 60.795 264.81 3.045 272.265 3.045 272.265 78.435 270.585 78.435 220.815 21.42 220.815 78.435"></polygon>
            <path d="M282.87,64.365 L289.275,60.585 C293.755,68.845 298.97,72.975 304.92,72.975 C308.77,72.975 312.06,71.75 314.79,69.3 C317.52,66.85 318.885,63.805 318.885,60.165 C318.885,57.295 317.73,54.39 315.42,51.45 C313.11,48.51 309.2775,45.0275 303.9225,41.0025 C298.5675,36.9775 294.9625,33.9675 293.1075,31.9725 C291.2525,29.9775 289.8875,27.8425 289.0125,25.5675 C288.1375,23.2925 287.7,21 287.7,18.69 C287.7,13.79 289.4325,9.6425 292.8975,6.2475 C296.3625,2.8525 300.72,1.155 305.97,1.155 C310.1,1.155 313.705,2.1875 316.785,4.2525 C319.865,6.3175 322.84,9.38 325.71,13.44 L319.62,18.165 C317.66,15.505 315.63,13.3 313.53,11.55 C311.43,9.8 308.8575,8.925 305.8125,8.925 C302.7675,8.925 300.2825,9.835 298.3575,11.655 C296.4325,13.475 295.47,15.785 295.47,18.585 C295.47,21.385 296.3275,23.8175 298.0425,25.8825 C299.7575,27.9475 303.6425,31.22 309.6975,35.7 C315.7525,40.18 320.1625,44.31 322.9275,48.09 C325.6925,51.87 327.075,55.86 327.075,60.06 C327.075,65.52 324.9575,70.2625 320.7225,74.2875 C316.4875,78.3125 311.57,80.325 305.97,80.325 C296.1,80.325 288.4,75.005 282.87,64.365 Z" id="Path"></path>
            <path d="M339.675,41.055 C339.675,33.775 341.425,27.055 344.925,20.895 C348.425,14.735 353.22,9.905 359.31,6.405 C365.4,2.905 372.0325,1.155 379.2075,1.155 C386.3825,1.155 393.0675,2.8875 399.2625,6.3525 C405.4575,9.8175 410.3225,14.6125 413.8575,20.7375 C417.3925,26.8625 419.16,33.5125 419.16,40.6875 C419.16,47.8625 417.41,54.5125 413.91,60.6375 C410.41,66.7625 405.5975,71.575 399.4725,75.075 C393.3475,78.575 386.6975,80.325 379.5225,80.325 C372.3475,80.325 365.68,78.5925 359.52,75.1275 C353.36,71.6625 348.5125,66.885 344.9775,60.795 C341.4425,54.705 339.675,48.125 339.675,41.055 Z M411.285,40.74 C411.285,31.71 408.1525,24.08 401.8875,17.85 C395.6225,11.62 388.08,8.505 379.26,8.505 C370.23,8.505 362.6875,11.6375 356.6325,17.9025 C350.5775,24.1675 347.55,31.7975 347.55,40.7925 C347.55,49.7875 350.665,57.4 356.895,63.63 C363.125,69.86 370.65,72.975 379.47,72.975 C388.29,72.975 395.7975,69.93 401.9925,63.84 C408.1875,57.75 411.285,50.05 411.285,40.74 Z" id="Shape"></path>
            <path d="M434.49,3.045 L442.05,3.045 L442.05,48.51 C442.05,53.2 442.1725,56.735 442.4175,59.115 C442.6625,61.495 443.5025,63.7875 444.9375,65.9925 C446.3725,68.1975 448.385,69.9475 450.975,71.2425 C453.565,72.5375 456.3475,73.185 459.3225,73.185 C462.2975,73.185 464.905,72.6425 467.145,71.5575 C469.385,70.4725 471.275,68.95 472.815,66.99 C474.355,65.03 475.4225,62.8775 476.0175,60.5325 C476.6125,58.1875 476.91,54.18 476.91,48.51 L476.91,3.045 L484.365,3.045 L484.365,48.51 C484.365,56.14 483.595,61.985 482.055,66.045 C480.515,70.105 477.8025,73.5 473.9175,76.23 C470.0325,78.96 465.465,80.325 460.215,80.325 C456.015,80.325 452.235,79.6425 448.875,78.2775 C445.515,76.9125 442.715,75.005 440.475,72.555 C438.235,70.105 436.6775,67.375 435.8025,64.365 C434.9275,61.355 434.49,56.07 434.49,48.51 L434.49,3.045 Z" id="Path"></path>
            <path d="M503.37,3.045 L518.385,3.045 C526.785,3.045 532.525,3.4125 535.605,4.1475 C538.685,4.8825 541.3275,6.09 543.5325,7.77 C545.7375,9.45 547.47,11.62 548.73,14.28 C549.99,16.94 550.62,19.88 550.62,23.1 C550.62,29.54 548.345,34.5975 543.795,38.2725 C539.245,41.9475 532.805,43.645 524.475,43.365 L551.67,78.435 L542.325,78.435 L515.235,43.365 L510.93,43.365 L510.93,78.435 L503.37,78.435 L503.37,3.045 Z M510.93,10.395 L510.93,36.015 L523.95,36.015 C530.39,36.085 535.1325,35.0875 538.1775,33.0225 C541.2225,30.9575 542.745,27.685 542.745,23.205 C542.745,18.725 541.24,15.47 538.23,13.44 C535.22,11.41 530.565,10.395 524.265,10.395 L510.93,10.395 Z" id="Shape"></path>
            <path d="M636.93,17.01 L631.05,21.525 C624.05,12.845 615.055,8.505 604.065,8.505 C595.105,8.505 587.3875,11.655 580.9125,17.955 C574.4375,24.255 571.2,31.9725 571.2,41.1075 C571.2,50.2425 574.3675,57.8725 580.7025,63.9975 C587.0375,70.1225 594.965,73.185 604.485,73.185 C615.125,73.185 623.98,69.055 631.05,60.795 L636.93,65.31 C633.22,70.21 628.53,73.9375 622.86,76.4925 C617.19,79.0475 610.925,80.325 604.065,80.325 C592.095,80.325 582.295,76.545 574.665,68.985 C567.035,61.425 563.22,51.87 563.22,40.32 C563.22,33.18 564.9875,26.5825 568.5225,20.5275 C572.0575,14.4725 576.9575,9.73 583.2225,6.3 C589.4875,2.87 596.225,1.155 603.435,1.155 C610.645,1.155 617.12,2.52 622.86,5.25 C628.6,7.98 633.29,11.9 636.93,17.01 Z" id="Path"></path>
            <polygon id="Path" points="652.155 3.045 695.415 3.045 695.415 10.5 659.715 10.5 659.715 34.02 695.1 34.02 695.1 41.37 659.715 41.37 659.715 70.98 695.1 70.98 695.1 78.435 652.155 78.435"></polygon>
            <path d="M739.2,-7.10542736e-15 L774.375,78.435 L766.29,78.435 L754.425,52.71 L721.875,52.71 L710.115,78.435 L701.715,78.435 L737.31,-7.10542736e-15 L739.2,-7.10542736e-15 Z M738.255,16.695 L725.34,45.045 L751.065,45.045 L738.255,16.695 Z" id="Shape"></path>
            <path d="M786.345,3.045 L793.905,3.045 L793.905,48.51 C793.905,53.2 794.0275,56.735 794.2725,59.115 C794.5175,61.495 795.3575,63.7875 796.7925,65.9925 C798.2275,68.1975 800.24,69.9475 802.83,71.2425 C805.42,72.5375 808.2025,73.185 811.1775,73.185 C814.1525,73.185 816.76,72.6425 819,71.5575 C821.24,70.4725 823.13,68.95 824.67,66.99 C826.21,65.03 827.2775,62.8775 827.8725,60.5325 C828.4675,58.1875 828.765,54.18 828.765,48.51 L828.765,3.045 L836.22,3.045 L836.22,48.51 C836.22,56.14 835.45,61.985 833.91,66.045 C832.37,70.105 829.6575,73.5 825.7725,76.23 C821.8875,78.96 817.32,80.325 812.07,80.325 C807.87,80.325 804.09,79.6425 800.73,78.2775 C797.37,76.9125 794.57,75.005 792.33,72.555 C790.09,70.105 788.5325,67.375 787.6575,64.365 C786.7825,61.355 786.345,56.07 786.345,48.51 L786.345,3.045 Z" id="Path"></path>
            <path d="M854.805,78.435 L854.805,3.045 L870.45,3.045 C881.16,3.045 889.0175,3.8325 894.0225,5.4075 C899.0275,6.9825 903.35,9.4675 906.99,12.8625 C910.63,16.2575 913.43,20.405 915.39,25.305 C917.35,30.205 918.33,35.9275 918.33,42.4725 C918.33,49.0175 916.8075,55.1775 913.7625,60.9525 C910.7175,66.7275 906.5875,71.085 901.3725,74.025 C896.1575,76.965 888.65,78.435 878.85,78.435 L854.805,78.435 Z M862.05,71.295 L870.765,71.295 C879.865,71.295 886.4625,70.84 890.5575,69.93 C894.6525,69.02 898.24,67.2175 901.32,64.5225 C904.4,61.8275 906.745,58.555 908.355,54.705 C909.965,50.855 910.77,46.445 910.77,41.475 C910.77,36.505 909.8425,31.92 907.9875,27.72 C906.1325,23.52 903.49,20.055 900.06,17.325 C896.63,14.595 892.5875,12.7575 887.9325,11.8125 C883.2775,10.8675 876.435,10.395 867.405,10.395 L862.05,10.395 L862.05,71.295 Z" id="Shape"></path>
            <polygon id="Path" points="931.875 3.045 939.435 3.045 939.435 78.435 931.875 78.435"></polygon>
            <path d="M953.4,41.055 C953.4,33.775 955.15,27.055 958.65,20.895 C962.15,14.735 966.945,9.905 973.035,6.405 C979.125,2.905 985.7575,1.155 992.9325,1.155 C1000.1075,1.155 1006.7925,2.8875 1012.9875,6.3525 C1019.1825,9.8175 1024.0475,14.6125 1027.5825,20.7375 C1031.1175,26.8625 1032.885,33.5125 1032.885,40.6875 C1032.885,47.8625 1031.135,54.5125 1027.635,60.6375 C1024.135,66.7625 1019.3225,71.575 1013.1975,75.075 C1007.0725,78.575 1000.4225,80.325 993.2475,80.325 C986.0725,80.325 979.405,78.5925 973.245,75.1275 C967.085,71.6625 962.2375,66.885 958.7025,60.795 C955.1675,54.705 953.4,48.125 953.4,41.055 Z M1025.01,40.74 C1025.01,31.71 1021.8775,24.08 1015.6125,17.85 C1009.3475,11.62 1001.805,8.505 992.985,8.505 C983.955,8.505 976.4125,11.6375 970.3575,17.9025 C964.3025,24.1675 961.275,31.7975 961.275,40.7925 C961.275,49.7875 964.39,57.4 970.62,63.63 C976.85,69.86 984.375,72.975 993.195,72.975 C1002.015,72.975 1009.5225,69.93 1015.7175,63.84 C1021.9125,57.75 1025.01,50.05 1025.01,40.74 Z" id="Shape"></path>
        </g>
    </g>
</svg>