<?xml version="1.0" encoding="UTF-8"?>
<svg width="1085px" height="507px" viewBox="0 0 1085 507" version="1.1" xmlns="http://www.w3.org/2000/svg" xmlns:xlink="http://www.w3.org/1999/xlink">
    <title>logo-sketch</title>
    <g id="Page-1" stroke="none" stroke-width="1" fill="none" fill-rule="evenodd">
        <g id="waveform-lines-sharp-regular" transform="translate(33.000000, 0.000000)" fill="#326358" fill-rule="nonzero">
            <path d="M547.7125,0 L547.7125,23.765625 L547.7125,483.234375 L547.7125,507 L471.2875,507 L471.2875,483.234375 L471.2875,23.765625 L471.2875,0 L547.7125,0 Z M866.15,63.375 L866.15,87.140625 L866.15,419.859375 L866.15,443.625 L789.725,443.625 L789.725,419.859375 L789.725,87.140625 L789.725,63.375 L866.15,63.375 Z M382.125,95.0625 L382.125,118.828125 L382.125,388.171875 L382.125,411.9375 L305.7,411.9375 L305.7,388.171875 L305.7,118.828125 L305.7,95.0625 L382.125,95.0625 Z M713.3,126.75 L713.3,150.515625 L713.3,356.484375 L713.3,380.25 L636.875,380.25 L636.875,356.484375 L636.875,150.515625 L636.875,126.75 L713.3,126.75 Z M229.275,190.125 L229.275,213.890625 L229.275,293.109375 L229.275,316.875 L152.85,316.875 L152.85,293.109375 L152.85,213.890625 L152.85,190.125 L229.275,190.125 Z M76.425,221.8125 L76.425,245.578125 L76.425,261.421875 L76.425,285.1875 L0,285.1875 L0,261.421875 L0,245.578125 L0,221.8125 L76.425,221.8125 Z M1019,221.8125 L1019,245.578125 L1019,261.421875 L1019,285.1875 L942.575,285.1875 L942.575,261.421875 L942.575,245.578125 L942.575,221.8125 L1019,221.8125 Z" id="Shape"></path>
        </g>
        <text id="TONALFLEX" font-family="STHeitiTC-Light, Heiti TC" font-size="195" font-weight="300" fill="#FFFFFF">
            <tspan x="13" y="286">TONALFLEX</tspan>
        </text>
        <text id="OPENSOURCEAUDIO" font-family="STHeitiTC-Light, Heiti TC" font-size="105" font-weight="300" fill="#FFFFFF">
            <tspan x="19" y="376">OPENSOURCEAUDIO</tspan>
        </text>
    </g>
</svg>